<?xml version="1.0" standalone="no"?>
<!DOCTYPE svg PUBLIC "-//W3C//DTD SVG 20010904//EN"
 "http://www.w3.org/TR/2001/REC-SVG-20010904/DTD/svg10.dtd">
<svg version="1.0" xmlns="http://www.w3.org/2000/svg"
 width="96.000000pt" height="96.000000pt" viewBox="0 0 96.000000 96.000000"
 preserveAspectRatio="xMidYMid meet">

<g transform="translate(0.000000,96.000000) scale(0.100000,-0.100000)"
fill="#000000" stroke="none">
<path d="M440 902 c0 -19 -7 -30 -22 -37 -22 -10 -23 -15 -23 -130 l0 -120 31
-10 31 -10 -78 -85 c-65 -70 -79 -90 -79 -117 l0 -33 -135 0 -135 0 0 -135 0
-135 79 0 c61 0 80 3 85 15 9 24 41 18 126 -25 44 -22 89 -40 101 -40 20 0
315 166 352 198 9 8 17 28 17 43 0 15 4 31 10 34 5 3 10 30 10 58 0 52 -1 54
-81 140 l-81 87 141 0 141 0 0 120 0 120 -105 0 c-99 0 -105 1 -105 20 0 12
-11 32 -25 45 -23 24 -30 25 -140 25 l-115 0 0 -28z m234 -18 c9 -8 16 -29 16
-45 0 -22 5 -29 20 -29 19 0 20 -7 20 -90 l0 -90 -50 0 -50 0 0 55 c0 44 3 53
15 49 10 -4 15 0 15 14 0 13 -9 22 -26 26 -16 4 -30 19 -40 41 -16 39 -40 55
-82 55 -17 0 -32 6 -36 15 -8 23 176 22 198 -1z m-139 -59 c0 -11 -79 -19
-102 -11 -8 3 -11 11 -8 16 8 14 110 9 110 -5z m255 -105 c0 -53 -4 -90 -10
-90 -6 0 -10 37 -10 90 0 53 4 90 10 90 6 0 10 -37 10 -90z m110 0 l0 -90 -35
0 -35 0 0 90 0 90 35 0 35 0 0 -90z m-365 45 c0 -11 -79 -19 -102 -11 -8 3
-11 11 -8 16 8 14 110 9 110 -5z m65 -84 l1 -76 89 -95 c84 -89 90 -98 90
-138 0 -26 -5 -44 -12 -46 -7 -2 -83 -15 -168 -29 l-155 -25 -45 44 c-25 24
-51 44 -58 44 -7 0 -12 12 -12 26 0 37 162 214 195 214 34 0 45 20 44 81 -2
99 -1 103 16 89 11 -9 15 -34 15 -89z m-65 24 c0 -11 -79 -19 -102 -11 -8 3
-11 11 -8 16 8 14 110 9 110 -5z m0 -60 c0 -11 -79 -19 -102 -11 -8 3 -11 11
-8 16 8 14 110 9 110 -5z m-375 -420 l0 -105 -50 0 -50 0 0 105 0 105 50 0 50
0 0 -105z m237 43 c62 -62 79 -98 46 -98 -10 0 -37 19 -60 42 -34 33 -46 39
-55 30 -9 -9 -3 -21 27 -53 47 -49 79 -63 105 -49 33 18 43 47 27 78 l-13 28
130 22 c154 26 156 26 156 8 0 -13 -317 -206 -339 -206 -7 0 -47 18 -91 40
-44 22 -91 40 -105 40 -25 0 -25 0 -25 90 l0 90 67 0 67 0 63 -62z"/>
<path d="M535 550 c-5 -5 -20 -18 -32 -29 -13 -12 -23 -30 -23 -41 0 -29 35
-60 69 -60 37 0 59 -24 41 -45 -7 -8 -23 -15 -35 -15 -12 0 -28 7 -35 15 -14
17 -40 20 -40 5 0 -13 62 -70 75 -70 6 0 23 13 56 43 39 35 7 97 -50 97 -37 0
-59 24 -41 45 7 8 23 15 35 15 12 0 28 -7 35 -15 14 -17 40 -20 40 -5 0 6 -9
18 -19 28 -51 45 -58 48 -76 32z"/>
<path d="M100 165 c0 -8 9 -15 20 -15 11 0 20 7 20 15 0 8 -9 15 -20 15 -11 0
-20 -7 -20 -15z"/>
</g>
</svg>
